# xmcd
#
# Track frame offsets:
#	150
#	14571
#	30067
#	44727
#	59773
#	74066
#	86333
#	100772
#	117355
#	131719
#
# Disc length: 1960 seconds
#
# Revision: 1
# Processed by: cddbd v1.5PL3 Copyright (c) Steve Scherf et al.
# Submitted via: audiograbber 1.82.01
#
DISCID=8c07a60a
DTITLE=Norteños de ojinaga - Como olvidar
DYEAR=2003
DGENRE=Grupero
TTITLE0=Nortenos de ojinaga - Mi casita de paja
TTITLE1=Nortenos de ojinaga - Tienes razon
TTITLE2=Nortenos de ojinaga - Me equivoque
TTITLE3=Nortenos de ojinaga - Amor loco
TTITLE4=Nortenos de ojinaga - Me voy
TTITLE5=Nortenos de ojinaga - Cosecha de tu dolor
TTITLE6=Nortenos de ojinaga - Al fin y al cabo
TTITLE7=Nortenos de ojinaga - Los rabanos
TTITLE8=Nortenos de ojinaga - Como olvidar
TTITLE9=Nortenos de ojinaga - Ya no la molestare
EXTD=
EXTT0=
EXTT1=
EXTT2=
EXTT3=
EXTT4=
EXTT5=
EXTT6=
EXTT7=
EXTT8=
EXTT9=
PLAYORDER=
